<?xml version="1.0" standalone="no"?>
<!DOCTYPE svg PUBLIC "-//W3C//DTD SVG 20010904//EN"
 "http://www.w3.org/TR/2001/REC-SVG-20010904/DTD/svg10.dtd">
<svg version="1.0" xmlns="http://www.w3.org/2000/svg"
 width="300.000000pt" height="300.000000pt" viewBox="0 0 300.000000 300.000000"
 preserveAspectRatio="xMidYMid meet">
<metadata>
Created by potrace 1.10, written by Peter Selinger 2001-2011
</metadata>
<g transform="translate(0.000000,300.000000) scale(0.100000,-0.100000)"
fill="#000000" stroke="none">
<path d="M477 2704 c-4 -4 -7 -15 -7 -24 0 -20 -31 -50 -68 -67 -26 -11 -26
-11 -4 -12 29 -1 72 -43 72 -71 0 -11 5 -20 10 -20 6 0 10 9 10 19 0 22 53 71
78 72 10 0 4 6 -14 14 -36 16 -53 35 -62 70 -4 14 -11 23 -15 19z m36 -86 c6
-3 2 -16 -10 -32 l-20 -25 -22 23 -22 23 23 26 c21 23 24 24 32 9 5 -9 14 -20
19 -24z"/>
<path d="M925 2626 c-66 -32 -53 -33 16 -2 30 14 50 25 44 25 -5 1 -32 -10
-60 -23z"/>
<path d="M723 2515 c-29 -19 -53 -37 -53 -40 0 -7 99 54 105 66 9 13 5 11 -52
-26z"/>
<path d="M945 2526 c-40 -17 -82 -67 -95 -114 -6 -24 -9 -209 -8 -512 2 -343
4 -417 8 -265 3 116 8 203 12 195 4 -8 10 -82 13 -165 15 -464 16 -542 6 -575
-5 -19 -11 -79 -12 -132 -2 -143 -19 -120 -19 27 l0 125 -30 0 c-16 0 -30 5
-30 10 0 6 -10 10 -22 10 -13 0 -34 12 -47 25 -13 14 -30 25 -39 25 -8 0 -12
3 -9 7 4 3 1 13 -6 22 -8 9 -17 24 -21 35 -5 16 -3 18 23 13 25 -5 35 0 64 32
50 55 54 76 21 106 -29 27 -30 25 41 44 l40 10 -50 -3 c-27 -2 -58 -7 -67 -11
-15 -6 -18 -2 -18 20 0 14 7 33 15 42 12 12 13 18 4 29 -14 17 -38 18 -44 1
-3 -7 -1 -34 4 -61 8 -45 7 -51 -14 -68 -50 -39 -70 -130 -41 -186 30 -58 102
-106 175 -118 l41 -7 0 -122 0 -123 40 -10 40 -10 0 758 0 758 31 26 31 26
468 0 c342 0 476 -3 495 -12 56 -25 55 -19 55 -638 0 -313 -3 -570 -7 -570 -5
0 -21 25 -37 55 -15 30 -32 53 -36 50 -4 -3 -10 22 -12 54 -7 103 -72 170
-178 187 -27 4 -37 10 -29 15 36 22 137 -25 179 -83 21 -28 30 -35 30 -23 0
27 -79 98 -128 114 -36 12 -42 18 -42 41 0 15 -7 33 -15 40 -19 16 -19 39 -1
46 8 3 17 12 20 20 16 42 65 275 60 288 -3 7 6 25 20 39 20 20 25 34 22 59 -2
17 -8 34 -15 36 -6 2 -11 12 -11 22 0 27 -17 33 -23 9 -3 -12 -10 -18 -16 -14
-6 3 -11 -1 -11 -9 0 -9 6 -16 13 -16 26 0 47 -24 41 -48 -6 -20 -12 -22 -58
-20 -50 3 -51 4 -51 34 0 18 -8 41 -18 52 -16 18 -16 20 -1 33 24 20 36 57 24
79 -5 10 -30 28 -56 40 -46 23 -46 23 -72 3 -15 -11 -33 -38 -41 -60 -8 -23
-25 -46 -41 -55 -15 -8 -29 -27 -32 -40 -4 -21 -1 -25 16 -21 20 4 20 4 4 -10
-10 -8 -18 -23 -18 -34 0 -18 -6 -20 -67 -17 -38 1 -76 3 -86 3 -26 1 -31 26
-14 61 17 33 12 40 -9 13 -20 -27 -18 6 2 35 8 12 12 28 9 35 -7 13 22 -20 33
-39 4 -6 28 -13 54 -16 26 -3 46 -2 43 2 -3 4 2 13 10 20 24 20 18 30 -11 20
-36 -14 -42 -13 -49 10 -9 29 -35 26 -27 -2 5 -22 5 -22 -12 -5 -10 9 -22 17
-27 17 -5 0 -14 11 -19 25 -24 63 -108 32 -123 -45 -9 -43 -9 -43 -25 -23 -34
42 -170 41 -198 -3 -13 -18 -13 -27 -3 -46 16 -31 28 -38 67 -38 47 0 60 -17
88 -117 13 -49 34 -119 45 -156 17 -55 19 -74 10 -99 -17 -49 -13 -77 19 -130
17 -26 30 -53 30 -58 0 -6 5 -10 10 -10 6 0 10 -6 10 -14 0 -16 48 -24 100
-16 25 4 31 8 21 14 -10 7 -7 14 14 32 22 19 40 24 81 24 29 0 55 -4 58 -9 3
-5 -4 -21 -17 -37 -12 -16 -21 -31 -21 -34 1 -3 -2 -15 -7 -28 -8 -22 -10 -22
-38 -7 -24 12 -69 15 -224 15 -191 0 -194 0 -216 -24 -29 -31 -25 -73 11 -99
23 -17 45 -20 180 -23 142 -2 221 4 258 20 12 5 19 -5 30 -41 16 -52 15 -83
-2 -83 -6 0 -16 7 -22 16 -19 25 -64 29 -257 24 l-181 -5 -23 -27 c-23 -26
-24 -34 -24 -199 -1 -94 -4 -175 -7 -180 -3 -5 0 -9 6 -9 7 0 10 -7 7 -15 -4
-8 9 -37 28 -64 18 -28 36 -64 40 -81 6 -26 11 -30 38 -30 18 0 88 -2 156 -4
145 -4 188 4 218 39 l23 26 29 -22 c27 -20 40 -21 168 -20 l139 2 39 -36 c22
-20 54 -46 70 -57 l30 -22 -25 28 c-13 15 -47 45 -76 66 l-51 40 -127 0 c-70
0 -136 5 -147 10 -22 12 -26 59 -7 78 8 8 51 12 129 12 l116 0 -1 -37 c-1 -30
3 -38 19 -41 11 -2 35 -15 53 -29 47 -35 39 -8 -13 45 -25 24 -45 48 -45 53 0
18 47 39 89 39 34 0 65 -11 128 -45 47 -25 104 -48 130 -52 64 -9 49 10 -22
27 -62 15 -68 22 -154 170 l-44 75 -178 -3 c-196 -4 -219 1 -219 46 0 49 12
52 181 52 l156 0 28 -41 c18 -28 30 -38 37 -31 7 7 -8 36 -47 94 -68 97 -79
110 -69 83 7 -18 6 -19 -10 -6 -9 8 -14 21 -11 29 8 21 -43 105 -60 98 -18 -7
-55 40 -55 69 0 12 10 30 21 41 22 19 22 19 10 -5 -14 -26 -7 -86 11 -97 7 -5
9 2 6 20 -6 29 3 34 22 11 22 -27 23 -7 1 21 -27 34 -27 60 0 75 19 10 28 4
85 -58 35 -37 64 -63 64 -57 0 6 -9 19 -20 29 -11 10 -20 24 -20 30 0 7 -13
27 -29 44 -24 26 -36 31 -76 31 -25 0 -55 -5 -66 -10 -29 -16 -51 -67 -44
-100 7 -32 56 -80 83 -81 9 0 27 -13 40 -30 l24 -29 -39 0 c-146 1 -227 169
-125 262 60 55 159 63 222 18 39 -28 73 -98 69 -145 -3 -28 6 -45 51 -102 30
-37 73 -93 96 -123 47 -64 104 -108 104 -81 0 12 -78 91 -90 91 -16 0 -12 15
11 44 31 39 73 35 148 -15 34 -23 65 -38 69 -34 7 6 -14 25 -48 45 -24 14 16
50 55 50 30 0 103 -42 120 -69 3 -6 13 -11 22 -11 13 0 12 5 -7 26 -21 21 -22
27 -10 35 23 15 80 3 108 -23 68 -64 182 -263 182 -320 0 -15 20 -88 45 -162
55 -164 56 -185 12 -228 -35 -35 -171 -118 -193 -118 -8 0 -13 -5 -12 -11 2
-6 -15 -18 -37 -26 -43 -16 -131 -11 -167 8 -12 6 -18 7 -14 1 13 -22 100 -54
133 -49 47 8 296 151 327 188 38 44 34 86 -24 247 -27 77 -50 148 -50 158 0
11 38 131 85 267 47 137 85 261 85 277 0 18 -8 34 -21 44 -12 8 -30 28 -40 45
-13 22 -27 31 -51 33 -18 2 -33 8 -33 13 0 6 24 23 53 38 56 31 63 44 32 72
-19 17 -21 17 -47 0 -16 -10 -43 -34 -60 -54 l-33 -35 -31 23 c-24 18 -40 22
-69 18 -62 -8 -66 1 -37 79 54 144 82 269 67 295 -13 20 -21 7 -26 -47 -3 -27
-24 -104 -45 -172 -23 -69 -38 -131 -34 -142 3 -11 -5 -46 -19 -81 -23 -57
-24 -64 -10 -88 l15 -26 -5 33 c-3 17 -2 32 3 32 5 0 11 9 14 20 3 13 14 20
28 20 17 0 20 3 11 12 -8 8 -15 8 -27 -2 -17 -14 -19 -7 -5 20 9 17 14 18 38
8 34 -15 61 -38 44 -38 -7 0 -12 -5 -12 -12 0 -6 7 -4 18 5 28 25 60 21 94
-13 16 -17 34 -28 39 -24 24 14 68 -8 85 -44 16 -35 16 -38 -11 -121 -16 -48
-28 -94 -27 -104 0 -9 -3 -17 -9 -17 -5 0 -9 -11 -9 -25 0 -14 -5 -25 -11 -25
-5 0 -7 -5 -4 -11 10 -15 -36 -159 -51 -159 -6 0 -24 23 -39 52 -15 28 -33 58
-41 65 -8 8 -14 23 -14 34 0 10 -5 19 -11 19 -12 0 -24 12 -57 54 -12 16 -22
25 -23 20 0 -5 -4 0 -9 11 -7 17 -9 17 -9 3 -1 -14 -7 -16 -31 -12 -16 4 -43
1 -58 -5 -23 -10 -35 -8 -71 8 -46 20 -80 17 -122 -13 -17 -11 -27 -12 -42 -4
-11 5 -37 8 -58 5 l-39 -5 -2 241 -3 242 45 59 c25 33 84 101 132 152 95 101
96 103 152 333 24 98 32 116 64 149 29 31 14 50 -74 92 -48 22 -90 40 -95 40
-13 0 -30 -39 -34 -76 -3 -38 -42 -105 -121 -210 -54 -72 -65 -92 -41 -78 9 6
9 5 1 -7 -7 -8 -14 -23 -18 -34 -3 -12 -4 -9 -2 8 2 15 0 27 -3 27 -4 0 -5 55
-3 123 5 137 -5 190 -44 237 -52 62 -37 60 -571 60 -383 -1 -495 -4 -518 -14z
m361 -28 c4 -4 1 -14 -6 -23 -7 -8 -10 -24 -7 -35 6 -23 18 -21 -163 -22 -142
0 -180 -11 -222 -61 l-27 -32 -1 31 c0 40 22 94 50 119 18 16 41 21 128 25
149 7 239 6 248 -2z m655 -8 c38 -17 70 -65 76 -111 7 -47 -3 -49 -40 -9 -37
39 -79 49 -216 50 -63 0 -116 1 -117 3 -1 1 -5 21 -9 44 l-7 42 144 -3 c87 -2
153 -8 169 -16z m-593 -37 c-2 -10 -12 -18 -23 -18 -11 0 -21 8 -23 18 -3 13
3 17 23 17 20 0 26 -4 23 -17z m70 0 c-2 -11 -14 -19 -31 -21 -22 -3 -27 1
-27 17 0 17 6 21 31 21 24 0 30 -4 27 -17z m70 5 c9 -9 12 -9 12 0 0 7 11 12
25 12 18 0 25 -5 25 -19 0 -17 -8 -19 -60 -19 -52 0 -60 2 -60 19 0 22 38 27
58 7z m120 -5 c-2 -10 -12 -18 -23 -18 -11 0 -21 8 -23 18 -3 13 3 17 23 17
20 0 26 -4 23 -17z m774 -43 c26 -12 44 -38 34 -48 -8 -7 -113 38 -126 54 -7
7 -9 18 -5 23 6 11 24 5 97 -29z m-65 -27 c66 -31 66 -32 42 -125 -11 -46 -23
-94 -25 -107 -6 -30 -41 -132 -49 -139 -3 -3 -5 17 -6 44 0 27 -4 57 -8 67 -6
17 -9 17 -19 4 -10 -12 -9 -16 3 -21 13 -5 15 -15 9 -53 -9 -63 -18 -80 -55
-99 -37 -18 -74 -12 -106 18 -33 31 -32 100 2 133 27 28 70 33 78 11 6 -16 67
-51 67 -39 0 5 -18 21 -40 36 -22 16 -40 33 -40 38 0 13 14 11 28 -3 9 -9 12
-8 12 5 0 10 -8 17 -20 17 -24 0 -25 7 -2 41 9 14 35 54 57 88 37 58 42 62 70
57 26 -5 24 -2 -15 19 -52 28 -39 34 17 8z m-86 -82 c-23 -33 -46 -63 -52 -67
-7 -4 6 20 28 52 22 32 43 68 47 79 5 12 10 15 13 8 2 -7 -14 -39 -36 -72z
m-192 -225 c17 -112 63 -155 152 -143 22 3 39 1 39 -4 0 -6 -27 -38 -59 -72
-33 -34 -70 -75 -82 -92 -13 -16 -28 -33 -34 -37 -9 -7 -21 -213 -25 -453 -1
-62 -4 -92 -9 -80 -5 11 -8 272 -8 580 0 321 4 519 8 465 4 -52 12 -126 18
-164z m-400 168 c25 -15 47 -28 49 -29 1 -1 -8 -20 -20 -42 -29 -53 -75 -65
-112 -28 l-24 24 26 51 c15 27 29 50 31 50 2 0 25 -12 50 -26z m-361 -48 c8
-15 12 -29 10 -31 -2 -3 -22 -7 -44 -9 -36 -5 -42 -3 -52 19 -11 23 -9 26 21
39 41 18 49 16 65 -18z m269 -72 c8 -21 -2 -27 -31 -20 -24 6 -27 15 -17 54 2
8 43 -21 48 -34z m-419 14 c5 -7 18 -39 28 -70 l18 -58 48 0 48 0 -20 40 c-31
61 -40 89 -31 94 4 3 21 -26 36 -64 l28 -70 232 0 c174 0 235 -3 243 -12 11
-14 -51 -292 -70 -315 -8 -10 -65 -13 -223 -13 -199 0 -213 -1 -230 -20 -10
-11 -16 -21 -14 -22 2 -1 107 -5 233 -8 208 -5 230 -7 240 -23 9 -16 7 -22
-11 -34 -13 -9 -23 -23 -23 -33 0 -35 -46 -54 -84 -35 -26 14 -28 13 -56 -27
-61 -84 -61 -182 0 -266 37 -52 118 -84 199 -80 48 3 59 0 79 -21 13 -13 20
-26 17 -29 -3 -4 -10 0 -15 8 -7 11 -40 15 -151 17 -86 2 -147 7 -156 14 -16
14 -17 61 -2 76 7 7 4 20 -10 44 -29 51 -35 110 -17 171 15 50 56 108 76 108
6 0 10 10 10 23 0 21 -3 22 -105 22 l-105 0 -9 -27 c-14 -40 -53 -56 -86 -34
-14 9 -26 22 -27 29 0 6 -2 17 -2 22 -1 6 -14 23 -29 39 -31 33 -34 61 -9 94
18 23 17 28 -38 218 l-55 195 -56 -2 c-31 -1 -61 1 -67 5 -15 9 -15 29 0 44
16 16 152 16 166 0z m98 -63 c8 -19 12 -35 9 -35 -6 0 -31 50 -39 80 -6 21 -5
22 4 7 6 -9 18 -33 26 -52z m422 39 c12 -4 22 -13 22 -20 0 -20 -27 -29 -45
-14 -8 6 -19 9 -24 6 -5 -4 -12 -2 -16 4 -3 6 4 10 17 10 18 0 20 2 8 10 -13
9 -13 10 0 10 8 0 25 -3 38 -6z m-74 -37 c23 -17 6 -32 -46 -40 -44 -7 -52 12
-16 37 27 19 39 20 62 3z m-174 -687 c11 -11 20 -24 20 -30 0 -5 -9 -19 -20
-30 -19 -19 -33 -20 -207 -20 -159 0 -189 2 -205 17 -24 22 -23 49 4 67 18 13
56 16 205 16 170 0 184 -1 203 -20z m-670 -11 c0 -6 -14 -30 -30 -55 -31 -44
-70 -60 -70 -29 0 24 28 73 47 84 24 14 53 14 53 0z m845 -169 c10 -16 63 -41
108 -50 l42 -8 -38 -1 c-21 -1 -55 8 -76 18 -39 21 -71 51 -53 51 6 0 14 -5
17 -10z m-177 -26 c22 -15 22 -18 22 -265 0 -236 -1 -250 -20 -269 -18 -18
-33 -20 -190 -20 -178 0 -170 -2 -174 41 -1 7 34 12 103 13 73 1 106 5 108 14
4 9 -23 12 -114 12 l-118 0 -22 35 c-22 33 -23 44 -23 229 0 190 1 195 22 210
18 13 56 16 203 16 147 0 185 -3 203 -16z m82 -128 c-20 -25 -30 -19 -30 21
l0 37 22 -21 c18 -18 19 -24 8 -37z m6 -117 c3 -6 -3 -21 -15 -32 l-21 -21 0
32 c0 32 21 45 36 21z m389 -63 c13 -19 14 -29 5 -45 -6 -12 -12 -21 -13 -22
-1 0 -76 -3 -167 -6 -189 -5 -220 1 -220 45 0 49 10 52 202 52 177 0 178 0
193 -24z m75 -76 c20 -40 28 -69 10 -38 -6 9 -24 19 -40 23 -17 4 -28 11 -24
16 3 5 9 7 14 4 5 -3 11 -1 14 4 4 5 2 12 -4 16 -5 3 -10 11 -10 16 0 19 20
-2 40 -41z m-463 -16 c6 -16 -15 -37 -29 -28 -4 3 -8 14 -8 25 0 23 28 26 37
3z"/>
<path d="M2163 2085 c-26 -18 -37 -60 -23 -83 9 -15 10 -14 5 5 -3 12 -1 24 5
28 5 3 10 1 10 -4 0 -6 5 -11 10 -11 7 0 7 7 0 21 -9 16 -8 25 6 40 21 23 16
24 -13 4z"/>
<path d="M2190 2050 c0 -3 5 -11 11 -17 12 -12 -17 -47 -32 -38 -5 4 -9 1 -9
-4 0 -6 6 -11 13 -11 23 0 47 24 52 50 4 21 1 26 -15 26 -11 0 -20 -3 -20 -6z"/>
<path d="M1210 1947 c0 -2 6 -26 14 -53 8 -27 21 -75 30 -106 l17 -58 50 0 51
0 -5 33 c-3 17 -9 67 -13 110 l-6 77 -69 0 c-38 0 -69 -1 -69 -3z m105 -27
c14 -23 22 -120 11 -138 -22 -36 -50 5 -65 101 -8 47 -8 47 20 47 15 0 31 -4
34 -10z"/>
<path d="M1415 1873 c11 -148 10 -145 58 -141 l42 3 7 75 c4 41 9 90 12 108
l5 32 -65 0 -66 0 7 -77z m78 39 c-2 -6 1 -12 5 -12 5 0 5 -21 1 -47 -4 -27
-8 -54 -8 -60 -1 -7 -10 -13 -21 -13 -20 0 -22 11 -22 120 0 31 1 32 25 28 12
-2 21 -9 20 -16z"/>
<path d="M1586 1854 c-4 -53 -10 -102 -13 -110 -4 -11 6 -14 43 -14 l49 0 23
98 c13 53 26 103 29 110 3 9 -12 12 -60 12 l-64 0 -7 -96z m89 66 c3 -5 3 -10
-2 -10 -4 0 -8 -23 -9 -50 -1 -49 -23 -90 -47 -90 -8 0 -5 81 5 132 6 25 41
38 53 18z"/>
<path d="M1020 1360 c0 -6 72 -10 195 -10 123 0 195 4 195 10 0 6 -72 10 -195
10 -123 0 -195 -4 -195 -10z"/>
<path d="M1120 1130 c0 -6 35 -10 85 -10 47 0 88 0 92 -1 4 0 9 4 11 10 2 7
-28 11 -92 11 -57 0 -96 -4 -96 -10z"/>
<path d="M1042 1058 c4 -10 49 -14 171 -16 144 -2 167 0 167 13 0 13 -24 15
-171 15 -132 0 -170 -3 -167 -12z"/>
<path d="M1040 985 c0 -13 26 -15 170 -15 144 0 170 2 170 15 0 13 -26 15
-170 15 -144 0 -170 -2 -170 -15z"/>
<path d="M1047 924 c-4 -4 -7 -11 -7 -16 0 -12 170 -5 173 7 2 11 -155 20
-166 9z"/>
<path d="M1297 924 c-13 -14 6 -24 44 -24 28 0 39 4 39 15 0 11 -11 15 -38 15
-21 0 -42 -3 -45 -6z"/>
<path d="M1044 851 c-16 -17 17 -21 167 -21 117 0 170 3 167 11 -3 10 -324 20
-334 10z"/>
<path d="M1042 768 c4 -10 49 -14 171 -16 144 -2 167 0 167 13 0 13 -24 15
-171 15 -132 0 -170 -3 -167 -12z"/>
<path d="M2630 2440 c-11 -11 -20 -28 -20 -37 1 -14 5 -12 21 10 11 15 29 27
39 27 10 0 28 -12 39 -27 19 -27 20 -27 21 -6 0 24 -34 53 -62 53 -10 0 -27
-9 -38 -20z"/>
<path d="M2641 2398 c-11 -30 -4 -36 14 -12 14 18 16 18 29 2 21 -28 39 -22
20 7 -20 31 -52 32 -63 3z"/>
<path d="M667 2380 c-7 -24 -8 -24 -21 -7 -16 20 -30 8 -20 -17 4 -12 2 -15
-9 -10 -8 3 -18 1 -22 -5 -3 -6 1 -11 11 -11 16 0 16 -1 2 -12 -27 -22 -32
-84 -9 -122 53 -86 189 -68 206 28 9 48 -17 105 -55 119 -16 6 -30 15 -30 19
0 4 -9 8 -19 8 -11 0 -21 8 -23 18 -3 13 -5 11 -11 -8z m75 -67 c32 -36 40
-58 29 -87 -15 -37 -40 -56 -74 -56 -36 0 -77 24 -77 45 0 7 -5 15 -12 17 -7
3 -9 11 -3 24 4 10 8 22 7 26 -1 3 11 11 26 16 15 6 36 17 47 26 27 20 27 20
57 -11z"/>
<path d="M297 2348 c-4 -15 -16 -30 -27 -33 -22 -7 -26 -20 -10 -30 6 -3 10 1
10 9 0 9 7 16 15 16 17 0 19 -12 5 -26 -7 -7 -5 -17 5 -30 9 -12 14 -14 15 -6
0 8 10 22 23 33 21 18 21 20 5 32 -10 8 -21 24 -26 37 l-9 24 -6 -26z"/>
<path d="M986 2331 c-21 -23 -20 -54 2 -74 14 -13 38 -17 90 -17 62 0 73 3 86
22 39 55 4 85 -96 86 -51 0 -70 -4 -82 -17z m69 -36 c0 -25 -4 -30 -24 -30
-28 0 -47 25 -38 49 5 12 16 16 34 14 24 -3 28 -8 28 -33z m96 19 c9 -11 10
-20 2 -32 -24 -39 -82 -15 -68 28 8 24 47 27 66 4z"/>
<path d="M1810 2343 c-99 -6 -118 -19 -99 -69 6 -19 18 -22 106 -27 81 -5 101
-3 115 10 35 32 8 94 -40 91 -15 -1 -52 -3 -82 -5z m-29 -29 c17 -21 0 -49
-32 -49 -24 0 -36 23 -25 51 7 19 40 18 57 -2z m54 -15 c0 -15 -7 -25 -17 -27
-13 -3 -18 3 -18 21 0 13 3 27 7 31 13 12 28 -1 28 -25z m90 11 c14 -43 -44
-67 -68 -28 -8 12 -7 21 2 32 19 23 58 20 66 -4z"/>
<path d="M1741 2306 c-12 -14 -5 -26 16 -26 15 0 18 26 4 34 -5 3 -14 0 -20
-8z"/>
<path d="M413 2137 c-28 -42 -42 -113 -21 -105 9 4 21 -6 33 -29 18 -33 19
-33 27 -13 4 12 4 29 -1 38 -15 31 -20 80 -11 111 11 40 1 39 -27 -2z"/>
<path d="M240 2124 c0 -6 7 -35 16 -65 26 -90 63 -130 65 -71 l1 27 8 -30 8
-30 1 33 c1 29 4 32 21 27 11 -3 20 -2 20 2 0 15 -23 33 -42 33 -9 0 -35 19
-58 42 -22 23 -40 37 -40 32z"/>
<path d="M2515 2081 c-17 -24 -36 -41 -54 -44 -15 -3 -47 -24 -71 -46 -58 -52
-47 -53 15 -2 64 53 92 55 158 16 l53 -32 27 37 26 37 -58 37 c-33 20 -62 36
-65 36 -3 0 -17 -17 -31 -39z m83 -5 c-2 -1 -16 -12 -33 -26 -22 -18 -25 -20
-12 -4 23 28 22 37 -5 28 -20 -6 -21 -5 -10 9 11 13 18 14 38 5 13 -6 23 -12
22 -12z"/>
<path d="M481 2066 c-24 -39 -26 -46 -8 -46 7 0 17 -10 22 -22 6 -14 21 -24
36 -26 22 -3 26 -7 21 -24 -3 -13 -1 -19 5 -15 12 8 26 -20 17 -34 -3 -5 0 -9
6 -9 6 0 8 -4 5 -10 -3 -5 -1 -10 4 -10 14 0 14 -57 1 -65 -5 -3 -7 -12 -3
-20 3 -9 -1 -15 -11 -15 -9 0 -16 -5 -16 -11 0 -9 -21 -10 -72 -6 -90 8 -118
16 -118 31 0 7 -11 19 -25 26 -32 17 -32 28 3 37 l27 8 -18 35 -19 35 6 -32
c3 -18 1 -33 -4 -33 -13 0 -61 65 -50 68 6 2 10 10 10 18 0 11 -16 14 -67 14
l-67 0 45 -29 c24 -15 57 -42 73 -59 l29 -31 -29 -6 c-67 -15 -69 -21 -8 -34
75 -17 76 -18 60 -44 -8 -12 -17 -33 -21 -45 -7 -24 -7 -24 20 -6 19 13 56 19
132 23 100 6 106 7 130 35 24 29 25 33 18 121 l-7 92 32 37 c18 20 27 36 21
36 -21 0 -86 -31 -107 -51 l-22 -21 -7 21 c-3 11 -6 39 -7 61 0 49 -10 50 -37
6z"/>
<path d="M2377 1928 c-85 -86 -137 -145 -137 -157 0 -3 -16 -28 -35 -55 -19
-27 -32 -52 -29 -55 3 -3 12 3 20 14 88 120 170 219 216 261 41 38 66 74 52
74 -3 0 -43 -37 -87 -82z"/>
<path d="M648 1903 c-10 -3 -18 -12 -17 -21 0 -9 3 -12 5 -7 5 12 84 7 98 -6
5 -5 -9 -11 -33 -15 -23 -4 -44 -11 -47 -16 -4 -6 5 -8 23 -4 26 6 31 4 37
-16 11 -41 7 -48 -26 -48 -22 0 -29 -3 -22 -10 8 -8 19 -8 38 0 15 5 44 11 64
12 l37 1 -33 4 c-24 3 -36 11 -43 30 -13 34 -3 46 37 41 45 -5 43 7 -3 30 -42
21 -89 31 -115 25z"/>
<path d="M2354 1838 c-61 -76 -94 -123 -94 -134 0 -4 12 7 28 26 15 18 51 62
80 96 28 34 52 65 52 68 0 18 -22 -1 -66 -56z"/>
<path d="M2839 1816 c-16 -20 -15 -23 2 -45 15 -18 19 -19 19 -7 0 9 5 16 10
16 6 0 10 7 10 15 0 8 -4 15 -9 15 -5 0 -11 6 -13 14 -2 10 -7 8 -19 -8z"/>
<path d="M525 1673 c5 -37 3 -43 -14 -43 -12 0 -24 13 -35 38 l-16 37 4 -43
c6 -66 107 -205 175 -242 17 -9 21 -8 21 6 0 10 -3 15 -6 12 -3 -3 -22 11 -43
31 -37 35 -37 36 -17 48 20 12 19 12 -11 13 -25 0 -36 7 -53 36 -26 42 -20 53
37 64 38 8 38 8 6 9 -27 1 -34 6 -39 29 -10 47 -14 49 -9 5z"/>
<path d="M760 1663 c-23 -9 -30 -25 -29 -63 l2 -35 6 35 c5 27 14 39 41 52 24
12 29 18 15 17 -11 0 -27 -3 -35 -6z"/>
<path d="M679 1655 c-3 -2 -16 -6 -29 -8 -13 -2 -26 -9 -28 -16 -3 -10 0 -10
16 -2 12 6 38 15 59 20 30 7 32 9 12 10 -14 1 -28 -1 -30 -4z"/>
<path d="M594 1580 c3 -44 16 -49 16 -7 0 21 -4 37 -9 37 -5 0 -8 -13 -7 -30z"/>
<path d="M2349 1563 c-12 -21 -22 -40 -22 -43 1 -3 -7 -7 -18 -7 -10 -1 -19 1
-19 5 0 4 -9 8 -20 8 -22 0 -27 -11 -7 -20 6 -4 -4 -4 -23 -1 -19 3 -41 11
-48 19 -11 10 -7 12 20 9 27 -2 29 -1 13 6 -32 15 -65 13 -65 -4 0 -22 58 -55
84 -48 28 8 75 7 110 -2 17 -5 27 -4 23 1 -3 6 3 28 13 51 13 30 15 44 7 52
-17 17 -23 14 -48 -26z"/>
<path d="M2393 1456 c9 -10 17 -24 17 -33 0 -8 20 -34 45 -59 34 -33 45 -51
45 -74 0 -18 4 -29 10 -25 17 11 -3 69 -34 100 -17 16 -29 34 -28 40 2 5 0 7
-4 3 -4 -4 -14 7 -23 24 -9 18 -23 34 -31 37 -11 3 -10 0 3 -13z"/>
<path d="M133 1405 c0 -33 2 -45 4 -27 2 18 2 45 0 60 -2 15 -4 0 -4 -33z"/>
<path d="M285 1425 c-64 -31 -75 -48 -75 -109 0 -81 51 -238 86 -267 26 -21
26 -2 1 48 -57 112 -74 237 -38 281 27 31 47 28 131 -23 78 -46 113 -59 70
-25 -25 20 -43 31 -107 64 -38 20 -51 36 -28 36 18 0 120 -54 148 -78 11 -10
17 -11 17 -4 0 18 22 14 50 -8 27 -21 55 -27 44 -9 -7 12 -124 68 -186 90 -21
7 -38 17 -38 21 0 14 -23 8 -75 -17z"/>
<path d="M2215 1438 c-4 -9 -4 -22 0 -28 8 -13 61 -13 85 0 16 9 22 5 35 -24
14 -29 65 -78 65 -62 0 2 3 12 7 22 5 13 3 16 -10 11 -11 -4 -24 4 -42 27 -14
18 -25 38 -25 44 0 7 -10 6 -27 -4 -33 -17 -68 -20 -43 -4 12 8 11 10 -7 10
-12 0 -23 6 -26 13 -3 8 -7 7 -12 -5z"/>
<path d="M430 1434 c44 -19 108 -48 133 -60 17 -9 27 -11 27 -4 0 6 -8 13 -17
17 -10 3 -36 14 -58 24 -23 10 -54 20 -70 23 -17 4 -23 3 -15 0z"/>
<path d="M500 1316 c0 -13 39 -30 49 -21 5 6 -29 34 -41 35 -5 0 -8 -6 -8 -14z"/>
<path d="M400 1274 c0 -7 40 -54 90 -105 49 -52 89 -89 89 -84 0 6 -40 53 -89
105 -49 52 -89 90 -90 84z"/>
<path d="M369 1245 c13 -27 168 -191 174 -185 3 3 -38 50 -90 105 -52 55 -90
91 -84 80z"/>
<path d="M239 1017 c-19 -4 -62 -11 -97 -15 l-62 -7 37 -55 c52 -78 121 -141
189 -176 33 -16 60 -29 61 -29 1 0 -8 -27 -19 -60 -53 -156 28 -332 187 -411
55 -26 69 -29 165 -29 89 0 113 4 157 24 53 23 81 47 70 57 -3 4 -18 -3 -32
-14 -31 -25 -114 -43 -189 -43 -73 0 -176 21 -196 40 -9 9 -25 21 -36 27 -29
16 -82 99 -101 160 -15 49 -16 64 -4 137 8 45 13 94 13 109 -2 59 130 125 216
109 24 -5 49 -14 55 -20 13 -13 27 -14 27 -3 0 13 -72 49 -112 56 -21 4 -56
15 -79 26 -23 10 -49 16 -57 12 -9 -3 -13 -1 -9 5 7 11 -119 50 -129 40 -3 -3
5 -8 18 -12 13 -4 70 -26 128 -48 l104 -40 -44 -11 c-25 -7 -63 -24 -85 -39
-22 -15 -46 -27 -54 -27 -35 0 -145 85 -190 147 l-30 41 32 5 c158 26 180 27
241 11 80 -21 202 -79 210 -100 4 -9 9 -14 12 -11 4 3 15 -4 26 -16 l19 -22
-16 32 c-21 43 -120 110 -199 135 -48 15 -189 24 -227 15z"/>
<path d="M726 877 c-13 -17 -34 -53 -45 -80 l-20 -47 24 0 c19 0 28 8 39 33 7
19 28 48 47 65 28 26 31 33 20 46 -20 24 -37 19 -65 -17z"/>
<path d="M833 790 c-40 -16 -23 -51 39 -77 22 -10 29 -9 42 6 22 24 20 39 -6
62 -25 20 -42 22 -75 9z m62 -26 c49 -32 19 -47 -35 -19 -17 9 -30 20 -30 25
0 15 38 12 65 -6z"/>
<path d="M280 573 c-11 -15 -18 -33 -15 -41 3 -7 5 -18 5 -23 0 -6 4 -8 9 -5
5 3 7 15 4 26 -3 11 2 31 11 45 22 33 13 32 -14 -2z"/>
<path d="M1944 500 c-6 -6 -176 -11 -449 -12 l-438 -3 -14 -41 c-8 -23 -29
-59 -48 -81 -19 -22 -31 -43 -28 -47 11 -11 969 -7 1000 5 35 13 70 45 89 80
13 26 12 28 -41 68 -61 46 -57 45 -71 31z m59 -60 c20 -19 21 -23 6 -48 -8
-15 -30 -32 -49 -39 -36 -12 -401 -18 -413 -7 -3 4 1 16 9 29 11 17 12 29 4
49 -5 15 -10 29 -10 31 0 5 363 12 403 8 15 -1 37 -12 50 -23z m-603 7 c0 -7
-5 -18 -11 -24 -8 -8 -7 -19 4 -42 8 -16 12 -32 9 -35 -9 -10 -361 -7 -367 3
-10 17 27 92 49 101 12 5 87 9 169 9 114 1 147 -2 147 -12z m130 -32 c20 -24
2 -35 -55 -35 -55 0 -71 9 -61 35 7 20 99 20 116 0z"/>
</g>
</svg>
